<svg xmlns="http://www.w3.org/2000/svg" width="182.441" height="24.799" viewBox="0 0 182.441 24.799">
  <g id="progress" transform="translate(-95.321 -636)">
    <g id="sound-waves" transform="translate(177.193 641.986)" style="isolation: isolate">
      <path id="Path_24" data-name="Path 24" d="M273.65,55.105a.583.583,0,0,0-.583.583V67.35a.583.583,0,1,0,1.166,0V55.689A.583.583,0,0,0,273.65,55.105Zm0,0" transform="translate(-273.067 -55.105)"/>
      <path id="Path_25" data-name="Path 25" d="M307.782,89.238a.583.583,0,0,0-.583.583v5.831a.583.583,0,1,0,1.166,0V89.821A.583.583,0,0,0,307.782,89.238Zm0,0" transform="translate(-304.284 -86.323)"/>
      <path id="Path_28" data-name="Path 28" d="M341.915,107.434a.583.583,0,0,0-.583.583v2.523a.583.583,0,0,0,1.166,0v-2.523A.583.583,0,0,0,341.915,107.434Zm0,0" transform="translate(-335.501 -102.965)"/>
    </g>
    <g id="Group_23" data-name="Group 23" transform="translate(95.321 636.32)">
      <g id="sound-waves-2" data-name="sound-waves" transform="translate(0 2.332)">
        <path id="Path_19" data-name="Path 19" d="M.583,102.9a.583.583,0,0,1,.583.583v2.915a.583.583,0,1,1-1.166,0v-2.915A.583.583,0,0,1,.583,102.9Zm0,0" transform="translate(23.322 -95.524)"/>
        <path id="Path_20" data-name="Path 20" d="M34.739,74.941a.656.656,0,0,1,.583.71v9.822a.594.594,0,1,1-1.166,0V75.651A.656.656,0,0,1,34.739,74.941Zm0,0" transform="translate(-13.752 -70.915)"/>
        <path id="Path_21" data-name="Path 21" d="M68.849,27.8a.619.619,0,0,1,.583.65V46.645a.587.587,0,1,1-1.166,0V28.45A.619.619,0,0,1,68.849,27.8Zm0,0" transform="translate(-50.774 -27.801)"/>
        <path id="Path_22" data-name="Path 22" d="M102.982,61.934a.642.642,0,0,1,.583.689v11.7a.591.591,0,1,1-1.166,0v-11.7A.642.642,0,0,1,102.982,61.934Zm0,0" transform="translate(-87.823 -59.018)"/>
        <path id="Path_23" data-name="Path 23" d="M206.052,45.406a.628.628,0,0,1,.583.665V61.028a.588.588,0,1,1-1.166,0V46.071A.628.628,0,0,1,206.052,45.406Zm0,0" transform="translate(-199.695 -43.903)"/>
        <path id="Path_24-2" data-name="Path 24" d="M273.65,55.105a.634.634,0,0,1,.583.674V69.261a.589.589,0,1,1-1.166,0V55.78A.634.634,0,0,1,273.65,55.105Zm0,0" transform="translate(-273.067 -52.773)"/>
        <path id="Path_26" data-name="Path 26" d="M239.517.492c.322,0,.583.1.583.218V8.571c0,.121-.261.218-.583.218s-.583-.1-.583-.218V.711c0-.121.261-.218.583-.218Zm0,0" transform="translate(-236.019 5.106)"/>
        <path id="Path_27" data-name="Path 27" d="M137.118,109.719a.583.583,0,0,1,.583.583v2.332a.583.583,0,1,1-1.166,0V110.3A.583.583,0,0,1,137.118,109.719Zm0,0" transform="translate(-124.874 -101.721)"/>
        <path id="Path_29" data-name="Path 29" d="M170.607,94.418a.583.583,0,0,1,.583.583v4.746a.583.583,0,1,1-1.166,0V95A.583.583,0,0,1,170.607,94.418Zm0,0" transform="translate(-161.223 -87.745)"/>
      </g>
      <path id="Path_19-2" data-name="Path 19" d="M.583,102.9a.583.583,0,0,0-.583.583v2.915a.583.583,0,1,0,1.166,0v-2.915A.583.583,0,0,0,.583,102.9Zm0,0" transform="translate(58.55 -93.18)"/>
      <path id="Path_20-2" data-name="Path 20" d="M34.739,74.941a.583.583,0,0,0-.583.583V83.6a.583.583,0,1,0,1.166,0V75.525A.583.583,0,0,0,34.739,74.941Zm0,0" transform="translate(27.311 -67.597)"/>
      <path id="Path_21-2" data-name="Path 21" d="M68.849,27.8a.619.619,0,0,0-.583.65V46.645a.587.587,0,1,0,1.166,0V28.45A.619.619,0,0,0,68.849,27.8Zm0,0" transform="translate(-3.885 -25.468)"/>
      <path id="Path_22-2" data-name="Path 22" d="M102.982,61.934c-.322,0-.583.489-.583,1.094V81.615c0,.6.261,1.094.583,1.094s.583-.49.583-1.094V63.027C103.565,62.423,103.3,61.934,102.982,61.934Zm0,0" transform="translate(-35.103 -60.533)"/>
      <path id="Path_23-2" data-name="Path 23" d="M206.052,45.406a.628.628,0,0,0-.583.665V61.028a.588.588,0,1,0,1.166,0V46.071A.628.628,0,0,0,206.052,45.406Zm0,0" transform="translate(-129.37 -41.57)"/>
      <path id="Path_26-2" data-name="Path 26" d="M239.517.492a.611.611,0,0,0-.583.636V24.015a.585.585,0,1,0,1.166,0V1.128a.611.611,0,0,0-.583-.636Zm0,0" transform="translate(-159.977 -0.492)"/>
      <path id="Path_27-2" data-name="Path 27" d="M137.118,109.719a.583.583,0,0,0-.583.583v2.332a.583.583,0,1,0,1.166,0V110.3A.583.583,0,0,0,137.118,109.719Zm0,0" transform="translate(-66.324 -99.389)"/>
      <path id="Path_29-2" data-name="Path 29" d="M170.607,94.418a.583.583,0,0,0-.583.583v4.746a.583.583,0,1,0,1.166,0V95A.583.583,0,0,0,170.607,94.418Zm0,0" transform="translate(-96.952 -85.407)"/>
      <g id="sound-waves-3" data-name="sound-waves" transform="translate(26.278 1.51)">
        <path id="Path_19-3" data-name="Path 19" d="M.583,102.9a.583.583,0,0,0-.583.583v2.915a.583.583,0,1,0,1.166,0v-2.915A.583.583,0,0,0,.583,102.9Zm0,0" transform="translate(0 -94.697)"/>
        <path id="Path_20-3" data-name="Path 20" d="M34.739,74.941a.583.583,0,0,0-.583.583V83.6a.583.583,0,1,0,1.166,0V75.525A.583.583,0,0,0,34.739,74.941Zm0,0" transform="translate(-31.239 -69.112)"/>
        <path id="Path_21-3" data-name="Path 21" d="M68.849,27.8a.652.652,0,0,0-.583.7v19.73a.594.594,0,1,0,1.166,0V28.505A.652.652,0,0,0,68.849,27.8Zm0,0" transform="translate(-62.435 -27.801)"/>
        <path id="Path_22-3" data-name="Path 22" d="M102.982,61.934a.642.642,0,0,0-.583.689v11.7a.591.591,0,1,0,1.166,0v-11.7A.642.642,0,0,0,102.982,61.934Zm0,0" transform="translate(-93.653 -58.196)"/>
        <path id="Path_23-3" data-name="Path 23" d="M206.052,45.406a.628.628,0,0,0-.583.665V61.028a.588.588,0,1,0,1.166,0V46.071A.628.628,0,0,0,206.052,45.406Zm0,0" transform="translate(-187.92 -43.08)"/>
        <path id="Path_24-3" data-name="Path 24" d="M273.65,55.105a.634.634,0,0,0-.583.674V69.261a.589.589,0,1,0,1.166,0V55.78A.634.634,0,0,0,273.65,55.105Zm0,0" transform="translate(-249.744 -51.951)"/>
        <path id="Path_25-2" data-name="Path 25" d="M307.782,89.238a.583.583,0,0,0-.583.583v5.831a.583.583,0,1,0,1.166,0V89.821A.583.583,0,0,0,307.782,89.238Zm0,0" transform="translate(-280.961 -82.168)"/>
        <path id="Path_26-3" data-name="Path 26" d="M239.517.492c-.322,0-.583.147-.583.329V12.661c0,.182.261.329.583.329s.583-.147.583-.329V.821c0-.182-.261-.329-.583-.329Zm0,0" transform="translate(-218.527 3.828)"/>
        <path id="Path_27-3" data-name="Path 27" d="M137.118,109.719a.583.583,0,0,0-.583.583v2.332a.583.583,0,1,0,1.166,0V110.3A.583.583,0,0,0,137.118,109.719Zm0,0" transform="translate(-124.873 -100.899)"/>
        <path id="Path_28-2" data-name="Path 28" d="M341.915,107.434a.583.583,0,0,0-.583.583v2.523a.583.583,0,0,0,1.166,0v-2.523A.583.583,0,0,0,341.915,107.434Zm0,0" transform="translate(-312.179 -98.822)"/>
        <path id="Path_29-3" data-name="Path 29" d="M170.607,94.418a.583.583,0,0,0-.583.583v4.746a.583.583,0,1,0,1.166,0V95A.583.583,0,0,0,170.607,94.418Zm0,0" transform="translate(-155.502 -86.92)"/>
      </g>
    </g>
    <g id="sound-waves-4" data-name="sound-waves" transform="translate(185.979 638.653)">
      <path id="Path_19-4" data-name="Path 19" d="M.583,102.9a.583.583,0,0,0-.583.583v2.915a.583.583,0,1,0,1.166,0v-2.915A.583.583,0,0,0,.583,102.9Zm0,0" transform="translate(0 -95.524)"/>
      <path id="Path_20-4" data-name="Path 20" d="M34.739,74.941a.656.656,0,0,0-.583.71v9.822a.594.594,0,1,0,1.166,0V75.651A.656.656,0,0,0,34.739,74.941Zm0,0" transform="translate(-31.239 -70.915)"/>
      <path id="Path_21-4" data-name="Path 21" d="M68.849,27.8a.619.619,0,0,0-.583.65V46.645a.587.587,0,1,0,1.166,0V28.45A.619.619,0,0,0,68.849,27.8Zm0,0" transform="translate(-62.435 -27.801)"/>
      <path id="Path_22-4" data-name="Path 22" d="M102.982,61.934a.642.642,0,0,0-.583.689v11.7a.591.591,0,1,0,1.166,0v-11.7A.642.642,0,0,0,102.982,61.934Zm0,0" transform="translate(-93.653 -59.018)"/>
      <path id="Path_23-4" data-name="Path 23" d="M206.052,45.406a.544.544,0,0,0-.583.495V57.03a.591.591,0,0,0,1.166,0V45.9A.544.544,0,0,0,206.052,45.406Zm0,0" transform="translate(-187.92 -41.819)"/>
      <path id="Path_24-4" data-name="Path 24" d="M273.65,55.105c-.322,0-.583.116-.583.26v5.193c0,.144.261.26.583.26s.583-.116.583-.26V55.365C274.233,55.222,273.972,55.105,273.65,55.105Zm0,0" transform="translate(-249.745 -48.215)"/>
      <path id="Path_42" data-name="Path 42" d="M273.65,55.105c-.322,0-.583.116-.583.26v5.193c0,.144.261.26.583.26s.583-.116.583-.26V55.365C274.233,55.222,273.972,55.105,273.65,55.105Zm0,0" transform="translate(-238.14 -48.215)"/>
      <path id="Path_46" data-name="Path 46" d="M273.65,55.105c-.322,0-.583.116-.583.26v5.193c0,.144.261.26.583.26s.583-.116.583-.26V55.365C274.233,55.222,273.972,55.105,273.65,55.105Zm0,0" transform="translate(-226.367 -48.215)"/>
      <path id="Path_50" data-name="Path 50" d="M273.65,55.105c-.322,0-.583.116-.583.26v5.193c0,.144.261.26.583.26s.583-.116.583-.26V55.365C274.233,55.222,273.972,55.105,273.65,55.105Zm0,0" transform="translate(-214.593 -48.215)"/>
      <path id="Path_25-3" data-name="Path 25" d="M307.782,89.238a.583.583,0,0,0-.583.583v5.831a.583.583,0,1,0,1.166,0V89.821A.583.583,0,0,0,307.782,89.238Zm0,0" transform="translate(-280.961 -82.99)"/>
      <path id="Path_44" data-name="Path 44" d="M307.782,89.238a.583.583,0,0,0-.583.583v5.831a.583.583,0,1,0,1.166,0V89.821A.583.583,0,0,0,307.782,89.238Zm0,0" transform="translate(-269.357 -82.99)"/>
      <path id="Path_48" data-name="Path 48" d="M307.782,89.238a.583.583,0,0,0-.583.583v5.831a.583.583,0,1,0,1.166,0V89.821A.583.583,0,0,0,307.782,89.238Zm0,0" transform="translate(-257.584 -82.99)"/>
      <path id="Path_52" data-name="Path 52" d="M307.782,89.238a.583.583,0,0,0-.583.583v5.831a.583.583,0,1,0,1.166,0V89.821A.583.583,0,0,0,307.782,89.238Zm0,0" transform="translate(-245.81 -82.99)"/>
      <path id="Path_26-4" data-name="Path 26" d="M239.517.492c-.322,0-.583.175-.583.39V14.931c0,.216.261.39.583.39s.583-.175.583-.39V.883c0-.215-.261-.39-.583-.39Zm0,0" transform="translate(-218.527 1.84)"/>
      <path id="Path_41" data-name="Path 41" d="M239.517.492c-.322,0-.583.175-.583.39V14.931c0,.216.261.39.583.39s.583-.175.583-.39V.883c0-.215-.261-.39-.583-.39Zm0,0" transform="translate(-206.922 1.84)"/>
      <path id="Path_45" data-name="Path 45" d="M239.517.492c-.322,0-.583.175-.583.39V14.931c0,.216.261.39.583.39s.583-.175.583-.39V.883c0-.215-.261-.39-.583-.39Zm0,0" transform="translate(-195.149 1.84)"/>
      <path id="Path_49" data-name="Path 49" d="M239.517.492c-.322,0-.583.175-.583.39V14.931c0,.216.261.39.583.39s.583-.175.583-.39V.883c0-.215-.261-.39-.583-.39Zm0,0" transform="translate(-183.376 1.84)"/>
      <path id="Path_27-4" data-name="Path 27" d="M137.118,109.719a.583.583,0,0,0-.583.583v2.332a.583.583,0,1,0,1.166,0V110.3A.583.583,0,0,0,137.118,109.719Zm0,0" transform="translate(-124.873 -101.721)"/>
      <path id="Path_28-3" data-name="Path 28" d="M341.915,107.434a.583.583,0,0,0-.583.583v2.523a.583.583,0,0,0,1.166,0v-2.523A.583.583,0,0,0,341.915,107.434Zm0,0" transform="translate(-312.179 -99.646)"/>
      <path id="Path_43" data-name="Path 43" d="M341.915,107.434a.583.583,0,0,0-.583.583v2.523a.583.583,0,0,0,1.166,0v-2.523A.583.583,0,0,0,341.915,107.434Zm0,0" transform="translate(-300.575 -99.646)"/>
      <path id="Path_47" data-name="Path 47" d="M341.915,107.434a.583.583,0,0,0-.583.583v2.523a.583.583,0,0,0,1.166,0v-2.523A.583.583,0,0,0,341.915,107.434Zm0,0" transform="translate(-288.801 -99.646)"/>
      <path id="Path_51" data-name="Path 51" d="M341.915,107.434a.583.583,0,0,0-.583.583v2.523a.583.583,0,0,0,1.166,0v-2.523A.583.583,0,0,0,341.915,107.434Zm0,0" transform="translate(-277.028 -99.646)"/>
      <path id="Path_29-4" data-name="Path 29" d="M170.607,94.418a.583.583,0,0,0-.583.583v4.746a.583.583,0,1,0,1.166,0V95A.583.583,0,0,0,170.607,94.418Zm0,0" transform="translate(-155.502 -87.745)"/>
    </g>
    <g id="sound-waves-5" data-name="sound-waves" transform="translate(250.36 636)">
      <path id="Path_20-5" data-name="Path 20" d="M34.739,74.941a.583.583,0,0,1,.583.583V83.6a.583.583,0,1,1-1.166,0V75.525A.583.583,0,0,1,34.739,74.941Zm0,0" transform="translate(-7.921 -67.276)"/>
      <path id="Path_21-5" data-name="Path 21" d="M68.849,27.8a.619.619,0,0,1,.583.65V46.645a.587.587,0,1,1-1.166,0V28.45A.619.619,0,0,1,68.849,27.8Zm0,0" transform="translate(-44.943 -25.148)"/>
      <path id="Path_22-5" data-name="Path 22" d="M102.982,61.934a.642.642,0,0,1,.583.689v11.7a.591.591,0,1,1-1.166,0v-11.7A.642.642,0,0,1,102.982,61.934Zm0,0" transform="translate(-81.992 -56.366)"/>
      <path id="Path_23-5" data-name="Path 23" d="M206.052,45.406a.628.628,0,0,1,.583.665V61.028a.588.588,0,1,1-1.166,0V46.071A.628.628,0,0,1,206.052,45.406Zm0,0" transform="translate(-193.864 -41.25)"/>
      <path id="Path_24-5" data-name="Path 24" d="M273.65,55.105a.634.634,0,0,1,.583.674V69.261a.589.589,0,1,1-1.166,0V55.78A.634.634,0,0,1,273.65,55.105Zm0,0" transform="translate(-267.236 -50.121)"/>
      <path id="Path_25-4" data-name="Path 25" d="M307.782,89.238a.583.583,0,0,1,.583.583v5.831a.583.583,0,1,1-1.166,0V89.821A.583.583,0,0,1,307.782,89.238Zm0,0" transform="translate(-304.283 -80.337)"/>
      <path id="Path_26-5" data-name="Path 26" d="M239.517.492a.621.621,0,0,1,.583.653V24.638a.587.587,0,1,1-1.166,0V1.145a.621.621,0,0,1,.583-.653Zm0,0" transform="translate(-230.188 -0.492)"/>
      <path id="Path_27-5" data-name="Path 27" d="M137.118,109.719a.583.583,0,0,1,.583.583v2.332a.583.583,0,1,1-1.166,0V110.3A.583.583,0,0,1,137.118,109.719Zm0,0" transform="translate(-119.043 -99.069)"/>
      <path id="Path_29-5" data-name="Path 29" d="M170.607,94.418a.583.583,0,0,1,.583.583v4.746a.583.583,0,1,1-1.166,0V95A.583.583,0,0,1,170.607,94.418Zm0,0" transform="translate(-155.392 -85.087)"/>
    </g>
  </g>
</svg>
