<!-- Generated by IcoMoon.io -->
<svg version="1.1" xmlns="http://www.w3.org/2000/svg" width="56" height="32" viewBox="0 0 56 32">
<title>chevron-down</title>
<path d="M27.995 22.356l21.162-21.178c0.722-0.725 1.721-1.174 2.825-1.174s2.103 0.449 2.824 1.174l0 0c0.719 0.728 1.163 1.728 1.163 2.832s-0.444 2.105-1.163 2.833l-23.979 23.994c-0.722 0.72-1.719 1.165-2.819 1.165-1.042 0-1.991-0.399-2.702-1.052l0.003 0.003-24.147-24.084c-0.726-0.724-1.176-1.726-1.176-2.832 0-2.209 1.791-4 4-4 1.103 0 2.101 0.446 2.825 1.168l-0-0z"></path>
</svg>
