<!-- Generated by IcoMoon.io -->
<svg version="1.1" xmlns="http://www.w3.org/2000/svg" width="18" height="32" viewBox="0 0 18 32">
<title>chevron-left</title>
<path d="M5.517 16.006l12.108 12.1c0.415 0.413 0.671 0.984 0.671 1.615s-0.257 1.202-0.671 1.615l-0 0c-0.416 0.411-0.988 0.665-1.619 0.665s-1.203-0.254-1.62-0.665l-13.719-13.71c-0.412-0.413-0.666-0.983-0.666-1.612 0-0.596 0.228-1.138 0.602-1.545l-0.001 0.002 13.77-13.806c0.414-0.415 0.987-0.672 1.619-0.672 1.263 0 2.287 1.024 2.287 2.287 0 0.63-0.255 1.201-0.668 1.615l0-0z"></path>
</svg>
