<!-- Generated by IcoMoon.io -->
<svg version="1.1" xmlns="http://www.w3.org/2000/svg" width="35" height="32" viewBox="0 0 35 32">
<title>heart</title>
<path fill="#fff" d="M25.080 0c5.294 0.136 9.533 4.459 9.533 9.773 0 0.213-0.007 0.424-0.020 0.634l0.001-0.029c0 12.107-12.973 19.029-17.296 21.622-4.325-2.595-17.298-9.515-17.298-21.622-0.010-0.169-0.016-0.367-0.016-0.566 0-5.321 4.234-9.653 9.516-9.812l0.015-0c3.062 0.117 5.798 1.419 7.781 3.457l0.003 0.003c1.985-2.041 4.721-3.343 7.76-3.459l0.021-0.001z"></path>
</svg>
