<!-- Generated by IcoMoon.io -->
<svg version="1.1" xmlns="http://www.w3.org/2000/svg" width="31" height="32" viewBox="0 0 31 32">
<title>home</title>
<path fill="#fff" opacity="0.604" d="M30.748 30.292c0 0.943-0.765 1.708-1.708 1.708v0h-27.331c-0.943 0-1.708-0.765-1.708-1.708v0-17.953c0-0 0-0.001 0-0.001 0-0.546 0.257-1.033 0.656-1.345l0.004-0.003 13.666-10.629c0.286-0.224 0.652-0.36 1.049-0.36s0.763 0.135 1.053 0.363l-0.004-0.003 13.666 10.629c0.403 0.316 0.659 0.802 0.659 1.348 0 0 0 0.001 0 0.001v-0 17.953zM13.666 18.334v10.249h3.416v-10.249z"></path>
</svg>
