<!-- Generated by IcoMoon.io -->
<svg version="1.1" xmlns="http://www.w3.org/2000/svg" width="36" height="32" viewBox="0 0 36 32">
<title>image</title>
<path d="M32.002 3.555h-28.447v24.889l16.515-16.523c0.322-0.322 0.766-0.521 1.257-0.521s0.935 0.199 1.257 0.521v0l9.417 9.429zM0 1.766c0.007-0.972 0.792-1.758 1.763-1.766h32.029c0.974 0.001 1.764 0.79 1.764 1.765 0 0 0 0.001 0 0.001v-0 28.47c-0.006 0.972-0.792 1.759-1.763 1.767h-32.029c-0.974-0.001-1.764-0.791-1.764-1.766 0-0 0-0.001 0-0.001v0zM10.667 14.222c-1.964 0-3.555-1.592-3.555-3.555s1.592-3.555 3.555-3.555c1.964 0 3.555 1.592 3.555 3.555v0c0 1.964-1.592 3.555-3.555 3.555v0z"></path>
</svg>
