<!-- Generated by IcoMoon.io -->
<svg version="1.1" xmlns="http://www.w3.org/2000/svg" width="32" height="32" viewBox="0 0 32 32">
<title>next</title>
<path d="M21.66 15.016l-19.691-14.77c-0.205-0.16-0.466-0.257-0.75-0.257-0.676 0-1.223 0.548-1.223 1.223 0 0.004 0 0.007 0 0.011v-0.001 29.546c0 0.002 0 0.004 0 0.005 0 0.477 0.273 0.891 0.672 1.092l0.007 0.003c0.16 0.081 0.35 0.129 0.55 0.13h0c0 0 0.001 0 0.001 0 0.278 0 0.534-0.093 0.74-0.249l-0.003 0.002 19.691-14.77c0.303-0.225 0.497-0.582 0.497-0.985s-0.194-0.759-0.494-0.982l-0.003-0.002z"></path>
<path d="M30.769-0.006h-2.461c-0.676 0-1.223 0.548-1.223 1.223v0 29.56c0 0.676 0.548 1.223 1.223 1.223v0h2.461c0.676 0 1.223-0.548 1.223-1.223v0-29.543c0-0.005 0-0.011 0-0.016 0-0.676-0.548-1.223-1.223-1.223-0 0-0 0-0 0v0z"></path>
</svg>
