<!-- Generated by IcoMoon.io -->
<svg version="1.1" xmlns="http://www.w3.org/2000/svg" width="32" height="32" viewBox="0 0 32 32">
<title>pause-round</title>
<path fill="#fff" opacity="0.4" d="M32 16c0 8.837-7.163 16-16 16s-16-7.163-16-16c0-8.837 7.163-16 16-16s16 7.163 16 16z"></path>
<path fill="#fff" d="M17.965 11.088c0.016-0.53 0.45-0.954 0.982-0.954s0.966 0.424 0.982 0.953l0 0.001v9.824c0 0.009 0 0.019 0 0.029 0 0.543-0.44 0.983-0.983 0.983s-0.983-0.44-0.983-0.983c0-0.010 0-0.020 0-0.030l-0 0.001zM11.789 11.088c0.016-0.53 0.45-0.954 0.982-0.954s0.966 0.424 0.982 0.953l0 0.001v9.824c0 0.009 0 0.019 0 0.029 0 0.543-0.44 0.983-0.983 0.983s-0.983-0.44-0.983-0.983c0-0.010 0-0.020 0-0.030l-0 0.001z"></path>
</svg>
