<!-- Generated by IcoMoon.io -->
<svg version="1.1" xmlns="http://www.w3.org/2000/svg" width="32" height="32" viewBox="0 0 32 32">
<title>play-round</title>
<path fill="#fff" opacity="0.4" d="M32 16c0 8.837-7.163 16-16 16s-16-7.163-16-16c0-8.837 7.163-16 16-16s16 7.163 16 16z"></path>
<path fill="#fff" d="M22.211 16.35l-8.926 5.95c-0.065 0.044-0.146 0.070-0.232 0.070-0.232 0-0.421-0.188-0.421-0.42v-11.901c0-0.232 0.189-0.421 0.421-0.421 0.087 0 0.168 0.026 0.235 0.071l-0.002-0.001 8.926 5.95c0.114 0.077 0.187 0.205 0.187 0.35s-0.074 0.274-0.186 0.349l-0.002 0.001z"></path>
</svg>
