<!-- Generated by IcoMoon.io -->
<svg version="1.1" xmlns="http://www.w3.org/2000/svg" width="32" height="32" viewBox="0 0 32 32">
<title>play</title>
<path fill="#ff4d7d" d="M31.88 15.49c-0.113-0.223-0.29-0.4-0.507-0.51l-0.007-0.003-29.713-14.856c-0.149-0.076-0.325-0.121-0.512-0.121-0.631 0-1.142 0.511-1.142 1.142 0 0 0 0.001 0 0.001v-0 29.714c0 0 0 0.001 0 0.001 0 0.631 0.511 1.142 1.142 1.142 0.187 0 0.363-0.045 0.518-0.124l-0.006 0.003 29.711-14.857c0.379-0.192 0.634-0.578 0.634-1.024 0-0.185-0.044-0.36-0.122-0.515l0.003 0.007z"></path>
</svg>
