<!-- Generated by IcoMoon.io -->
<svg version="1.1" xmlns="http://www.w3.org/2000/svg" width="32" height="32" viewBox="0 0 32 32">
<title>plus</title>
<path fill="#fff" d="M32 16c0 1.547-1.254 2.801-2.801 2.801v0h-10.4v10.4c0.001 0.023 0.001 0.050 0.001 0.077 0 1.547-1.254 2.801-2.801 2.801s-2.801-1.254-2.801-2.801c0-0.027 0-0.054 0.001-0.081l-0 0.004v-10.4h-10.4c-1.546 0-2.8-1.254-2.8-2.8s1.254-2.8 2.8-2.8v0h10.4v-10.4c0.043-1.513 1.28-2.724 2.8-2.724s2.757 1.21 2.8 2.72l0 0.004v10.4h10.4c1.546 0 2.8 1.253 2.801 2.799v0z"></path>
</svg>
