<!-- Generated by IcoMoon.io -->
<svg version="1.1" xmlns="http://www.w3.org/2000/svg" width="32" height="32" viewBox="0 0 32 32">
<title>prev</title>
<path d="M10.338 15.016l19.687-14.77c0.205-0.161 0.467-0.259 0.752-0.259 0.676 0 1.223 0.548 1.223 1.223 0 0.004-0 0.008-0 0.013v-0.001 29.546c0 0.002 0 0.004 0 0.005 0 0.477-0.273 0.891-0.672 1.092l-0.007 0.003c-0.16 0.081-0.35 0.129-0.55 0.13h-0c-0 0-0.001 0-0.001 0-0.278 0-0.534-0.093-0.74-0.249l0.003 0.002-19.695-14.768c-0.303-0.225-0.498-0.582-0.498-0.985s0.194-0.759 0.494-0.982l0.003-0.002z"></path>
<path d="M1.231-0.008h2.461c0.676 0 1.223 0.548 1.223 1.223v0 29.56c0 0.676-0.548 1.223-1.223 1.223v0h-2.461c-0.676 0-1.223-0.548-1.223-1.223v0-29.543c-0-0.005-0-0.011-0-0.016 0-0.676 0.548-1.223 1.223-1.223 0 0 0 0 0 0v0z"></path>
</svg>
