<!-- Generated by IcoMoon.io -->
<svg version="1.1" xmlns="http://www.w3.org/2000/svg" width="235" height="32" viewBox="0 0 235 32">
<title>progress</title>
<path fill="#000" opacity="0.196" d="M106.398 7.724c-0.415 0-0.752 0.337-0.752 0.752v0 15.048c0 0.415 0.337 0.752 0.752 0.752s0.752-0.337 0.752-0.752v0-15.047c0-0 0-0.001 0-0.001 0-0.415-0.337-0.752-0.752-0.752 0 0 0 0 0 0v0z"></path>
<path fill="#000" opacity="0.196" d="M110.159 11.486c-0.415 0-0.752 0.337-0.752 0.752v0 7.524c0 0.415 0.337 0.752 0.752 0.752s0.752-0.337 0.752-0.752v-7.524c0-0.415-0.337-0.752-0.752-0.752v0z"></path>
<path fill="#000" opacity="0.196" d="M113.922 13.491c-0.415 0-0.752 0.337-0.752 0.752v0 3.256c0 0.415 0.337 0.752 0.752 0.752s0.752-0.337 0.752-0.752v0-3.256c0-0.415-0.337-0.752-0.752-0.752v0z"></path>
<path fill="#ff4d7d" d="M30.846 12.94c0.415 0 0.752 0.337 0.752 0.752v0 3.761c0 0.415-0.337 0.752-0.752 0.752s-0.752-0.337-0.752-0.752v0-3.761c0-0.415 0.337-0.752 0.752-0.752v0z"></path>
<path fill="#ff4d7d" d="M27.081 8.617c0.427 0.047 0.756 0.406 0.756 0.842 0 0.026-0.001 0.052-0.004 0.078l0-0.003v12.674c0.009 0.044 0.014 0.095 0.014 0.147 0 0.423-0.343 0.766-0.766 0.766s-0.766-0.343-0.766-0.766c0-0.052 0.005-0.103 0.015-0.152l-0.001 0.005v-12.674c-0.002-0.022-0.003-0.048-0.003-0.075 0-0.435 0.329-0.794 0.752-0.841l0.004-0z"></path>
<path fill="#ff4d7d" d="M23.324 3.421c0.421 0.025 0.753 0.372 0.753 0.797 0 0.015-0 0.029-0.001 0.043l0-0.002v23.478c0.003 0.026 0.005 0.057 0.005 0.088 0 0.418-0.339 0.757-0.757 0.757s-0.757-0.339-0.757-0.757c0-0.031 0.002-0.062 0.006-0.092l-0 0.004v-23.478c-0.001-0.012-0.001-0.027-0.001-0.041 0-0.425 0.332-0.773 0.751-0.797l0.002-0z"></path>
<path fill="#ff4d7d" d="M19.561 7.185c0.425 0.039 0.755 0.394 0.755 0.825 0 0.023-0.001 0.045-0.003 0.067l0-0.003v15.097c0.007 0.038 0.010 0.081 0.010 0.125 0 0.421-0.341 0.763-0.763 0.763s-0.763-0.341-0.763-0.763c0-0.044 0.004-0.087 0.011-0.13l-0.001 0.005v-15.097c-0.002-0.019-0.002-0.041-0.002-0.064 0-0.432 0.33-0.786 0.752-0.825l0.003-0z"></path>
<path fill="#ff4d7d" d="M8.203 5.362c0.423 0.030 0.754 0.381 0.754 0.808 0 0.018-0.001 0.035-0.002 0.052l0-0.002v19.3c0.004 0.030 0.006 0.064 0.006 0.099 0 0.419-0.34 0.759-0.759 0.759s-0.759-0.34-0.759-0.759c0-0.035 0.002-0.069 0.007-0.103l-0 0.004v-19.3c-0.001-0.015-0.002-0.032-0.002-0.050 0-0.428 0.331-0.778 0.751-0.808l0.003-0z"></path>
<path fill="#ff4d7d" d="M0.752 6.431c0.423 0.034 0.754 0.386 0.754 0.816 0 0.019-0.001 0.038-0.002 0.057l0-0.003v17.397c0.005 0.032 0.008 0.070 0.008 0.108 0 0.42-0.34 0.76-0.76 0.76s-0.76-0.34-0.76-0.76c0-0.038 0.003-0.076 0.008-0.112l-0.001 0.004v-17.396c-0.001-0.017-0.002-0.036-0.002-0.055 0-0.429 0.331-0.781 0.751-0.815l0.003-0z"></path>
<path fill="#ff4d7d" d="M4.514 10.646c0.415 0 0.752 0.129 0.752 0.281v10.144c0 0.156-0.337 0.281-0.752 0.281s-0.752-0.129-0.752-0.281v-10.142c0-0.156 0.337-0.281 0.752-0.281z"></path>
<path fill="#ff4d7d" d="M15.799 13.742c0.415 0 0.752 0.337 0.752 0.752v0 3.009c0 0.415-0.337 0.752-0.752 0.752s-0.752-0.337-0.752-0.752v-3.012c0.001-0.414 0.338-0.75 0.752-0.75 0 0 0 0 0 0v0z"></path>
<path fill="#ff4d7d" d="M12.109 12.033c0.415 0 0.752 0.337 0.752 0.752v0 6.124c0 0.415-0.337 0.752-0.752 0.752s-0.752-0.337-0.752-0.752v-6.125c0.001-0.415 0.337-0.751 0.752-0.751 0 0 0 0 0 0v0z"></path>
<path fill="#ff4d7d" d="M76.304 12.955c-0.415 0-0.752 0.337-0.752 0.752v0 3.761c0 0.415 0.337 0.752 0.752 0.752s0.752-0.337 0.752-0.752v0-3.761c0-0.415-0.337-0.752-0.752-0.752v0z"></path>
<path fill="#ff4d7d" d="M80.068 9.889c-0.415 0-0.752 0.337-0.752 0.752v0 10.421c0 0.415 0.337 0.752 0.752 0.752s0.752-0.337 0.752-0.752v-10.42c0-0 0-0.001 0-0.001 0-0.415-0.337-0.752-0.752-0.752 0 0 0 0 0 0v0z"></path>
<path fill="#ff4d7d" d="M83.828 3.422c-0.421 0.025-0.753 0.372-0.753 0.797 0 0.015 0 0.029 0.001 0.043l-0-0.002v23.478c-0.003 0.026-0.005 0.057-0.005 0.088 0 0.418 0.339 0.757 0.757 0.757s0.757-0.339 0.757-0.757c0-0.031-0.002-0.062-0.006-0.092l0 0.004v-23.478c0.001-0.012 0.001-0.027 0.001-0.041 0-0.425-0.332-0.773-0.751-0.797l-0.002-0z"></path>
<path fill="#ff4d7d" d="M87.589 2.221c-0.415 0-0.752 0.631-0.752 1.412v23.984c0 0.774 0.337 1.412 0.752 1.412s0.752-0.632 0.752-1.412v-23.985c0-0.779-0.342-1.41-0.752-1.41z"></path>
<path fill="#ff4d7d" d="M98.948 5.363c-0.423 0.030-0.754 0.381-0.754 0.808 0 0.018 0.001 0.035 0.002 0.052l-0-0.002v19.3c-0.004 0.030-0.006 0.064-0.006 0.099 0 0.419 0.34 0.759 0.759 0.759s0.759-0.34 0.759-0.759c0-0.035-0.002-0.069-0.007-0.103l0 0.004v-19.3c0.001-0.015 0.002-0.032 0.002-0.050 0-0.428-0.331-0.778-0.751-0.808l-0.003-0z"></path>
<path fill="#ff4d7d" d="M102.636 0.413c-0.42 0.019-0.753 0.365-0.753 0.788 0 0.012 0 0.023 0.001 0.035l-0-0.002v29.533c-0.002 0.019-0.003 0.040-0.003 0.062 0 0.417 0.338 0.755 0.755 0.755s0.755-0.338 0.755-0.755c0-0.022-0.001-0.044-0.003-0.065l0 0.003v-29.533c0-0.010 0.001-0.021 0.001-0.033 0-0.423-0.333-0.768-0.751-0.788l-0.002-0z"></path>
<path fill="#ff4d7d" d="M91.351 13.742c-0.415 0-0.752 0.337-0.752 0.752v0 3.009c0 0.415 0.337 0.752 0.752 0.752s0.752-0.337 0.752-0.752v-3.012c-0.001-0.414-0.338-0.75-0.752-0.75 0 0 0 0 0 0v0z"></path>
<path fill="#ff4d7d" d="M95.043 12.040c-0.415 0-0.752 0.337-0.752 0.752v0 6.124c0 0.415 0.337 0.752 0.752 0.752s0.752-0.337 0.752-0.752v-6.125c-0.001-0.415-0.337-0.751-0.752-0.751 0 0 0 0 0 0v0z"></path>
<path fill="#ff4d7d" d="M34.661 12.946c-0.415 0-0.752 0.337-0.752 0.752v0 3.761c0 0.415 0.337 0.752 0.752 0.752s0.752-0.337 0.752-0.752v0-3.761c0-0.415-0.337-0.752-0.752-0.752v0z"></path>
<path fill="#ff4d7d" d="M38.425 9.883c-0.415 0-0.752 0.337-0.752 0.752v0 10.421c0 0.415 0.337 0.752 0.752 0.752s0.752-0.337 0.752-0.752v-10.42c0-0 0-0.001 0-0.001 0-0.415-0.337-0.752-0.752-0.752 0 0 0 0 0 0v0z"></path>
<path fill="#ff4d7d" d="M42.185 2.36c-0.426 0.045-0.755 0.403-0.755 0.837 0 0.023 0.001 0.046 0.003 0.069l-0-0.003v25.459c-0.009 0.044-0.014 0.095-0.014 0.147 0 0.423 0.343 0.766 0.766 0.766s0.766-0.343 0.766-0.766c0-0.052-0.005-0.103-0.015-0.152l0.001 0.005v-25.453c0.002-0.022 0.003-0.047 0.003-0.073 0-0.434-0.329-0.792-0.752-0.837l-0.004-0z"></path>
<path fill="#ff4d7d" d="M45.946 7.185c-0.425 0.039-0.755 0.394-0.755 0.825 0 0.023 0.001 0.045 0.003 0.067l-0-0.003v15.097c-0.007 0.038-0.010 0.081-0.010 0.125 0 0.421 0.341 0.763 0.763 0.763s0.763-0.341 0.763-0.763c0-0.044-0.004-0.087-0.011-0.13l0.001 0.005v-15.097c0.002-0.019 0.002-0.041 0.002-0.064 0-0.432-0.33-0.786-0.752-0.825l-0.003-0z"></path>
<path fill="#ff4d7d" d="M57.306 5.363c-0.423 0.030-0.754 0.381-0.754 0.808 0 0.018 0.001 0.035 0.002 0.052l-0-0.002v19.3c-0.004 0.030-0.006 0.064-0.006 0.099 0 0.419 0.34 0.759 0.759 0.759s0.759-0.34 0.759-0.759c0-0.035-0.002-0.069-0.007-0.103l0 0.004v-19.3c0.001-0.015 0.002-0.032 0.002-0.050 0-0.428-0.331-0.778-0.751-0.808l-0.003-0z"></path>
<path fill="#ff4d7d" d="M64.756 6.431c-0.423 0.034-0.754 0.386-0.754 0.816 0 0.019 0.001 0.038 0.002 0.057l-0-0.003v17.397c-0.005 0.032-0.008 0.070-0.008 0.108 0 0.42 0.34 0.76 0.76 0.76s0.76-0.34 0.76-0.76c0-0.038-0.003-0.076-0.008-0.112l0.001 0.004v-17.396c0.001-0.017 0.002-0.036 0.002-0.055 0-0.429-0.331-0.781-0.751-0.815l-0.003-0z"></path>
<path fill="#ff4d7d" d="M68.518 11.484c-0.415 0-0.752 0.337-0.752 0.752v0 7.524c0 0.415 0.337 0.752 0.752 0.752s0.752-0.337 0.752-0.752v-7.524c0-0.415-0.337-0.752-0.752-0.752v0z"></path>
<path fill="#ff4d7d" d="M60.993 7.936c-0.416 0-0.752 0.19-0.752 0.425v15.278c0 0.235 0.337 0.425 0.752 0.425s0.752-0.19 0.752-0.425v-15.278c0-0.235-0.337-0.425-0.752-0.425z"></path>
<path fill="#ff4d7d" d="M49.709 13.742c-0.415 0-0.752 0.337-0.752 0.752v0 3.009c0 0.415 0.337 0.752 0.752 0.752s0.752-0.337 0.752-0.752v-3.012c-0.001-0.414-0.338-0.75-0.752-0.75 0 0 0 0 0 0v0z"></path>
<path fill="#ff4d7d" d="M72.279 13.474c-0.415 0-0.752 0.337-0.752 0.752v0 3.256c0 0.415 0.337 0.752 0.752 0.752s0.752-0.337 0.752-0.752v0-3.256c0-0.415-0.337-0.752-0.752-0.752v0z"></path>
<path fill="#ff4d7d" d="M53.4 12.037c-0.415 0-0.752 0.337-0.752 0.752v0 6.124c0 0.415 0.337 0.752 0.752 0.752s0.752-0.337 0.752-0.752v-6.125c-0.001-0.415-0.337-0.751-0.752-0.751 0 0 0 0 0 0v0z"></path>
<path fill="#000" opacity="0.2" d="M117.735 12.941c-0.415 0-0.752 0.337-0.752 0.752v0 3.761c0 0.415 0.337 0.752 0.752 0.752s0.752-0.337 0.752-0.752v0-3.761c0-0.415-0.337-0.752-0.752-0.752v0z"></path>
<path fill="#000" opacity="0.2" d="M121.499 8.618c-0.427 0.047-0.756 0.406-0.756 0.842 0 0.026 0.001 0.052 0.004 0.078l-0-0.003v12.674c-0.009 0.044-0.014 0.095-0.014 0.147 0 0.423 0.343 0.766 0.766 0.766s0.766-0.343 0.766-0.766c0-0.052-0.005-0.103-0.015-0.152l0.001 0.005v-12.674c0.002-0.022 0.003-0.048 0.003-0.075 0-0.435-0.329-0.794-0.752-0.841l-0.004-0z"></path>
<path fill="#000" opacity="0.2" d="M125.259 3.422c-0.421 0.025-0.753 0.372-0.753 0.797 0 0.015 0 0.029 0.001 0.043l-0-0.002v23.478c-0.003 0.026-0.005 0.057-0.005 0.088 0 0.418 0.339 0.757 0.757 0.757s0.757-0.339 0.757-0.757c0-0.031-0.002-0.062-0.006-0.092l0 0.004v-23.478c0.001-0.012 0.001-0.027 0.001-0.041 0-0.425-0.332-0.773-0.751-0.797l-0.002-0z"></path>
<path fill="#000" opacity="0.2" d="M129.021 7.186c-0.425 0.039-0.755 0.394-0.755 0.825 0 0.023 0.001 0.045 0.003 0.067l-0-0.003v15.097c-0.007 0.038-0.010 0.081-0.010 0.125 0 0.421 0.341 0.763 0.763 0.763s0.763-0.341 0.763-0.763c0-0.044-0.004-0.087-0.011-0.13l0.001 0.005v-15.097c0.002-0.019 0.002-0.041 0.002-0.064 0-0.432-0.33-0.786-0.751-0.825l-0.003-0z"></path>
<path fill="#000" opacity="0.2" d="M140.38 8.052c-0.016-0.001-0.034-0.002-0.053-0.002-0.366 0-0.667 0.28-0.699 0.638l-0 0.003v14.361c0.062 0.364 0.375 0.638 0.752 0.638s0.69-0.274 0.752-0.633l0.001-0.005v-14.362c-0.033-0.36-0.333-0.639-0.699-0.639-0.019 0-0.037 0.001-0.056 0.002l0.002-0z"></path>
<path fill="#000" opacity="0.2" d="M147.829 12.314c-0.416 0-0.752 0.15-0.752 0.335v6.701c0 0.186 0.337 0.335 0.752 0.335s0.752-0.15 0.752-0.335v-6.701c0-0.185-0.337-0.335-0.752-0.335z"></path>
<path fill="#000" opacity="0.2" d="M162.804 12.314c-0.416 0-0.752 0.15-0.752 0.335v6.701c0 0.186 0.337 0.335 0.752 0.335s0.752-0.15 0.752-0.335v-6.701c0-0.185-0.337-0.335-0.752-0.335z"></path>
<path fill="#000" opacity="0.2" d="M177.996 12.314c-0.416 0-0.752 0.15-0.752 0.335v6.701c0 0.186 0.337 0.335 0.752 0.335s0.752-0.15 0.752-0.335v-6.701c0-0.185-0.337-0.335-0.752-0.335z"></path>
<path fill="#000" opacity="0.2" d="M193.188 12.314c-0.416 0-0.752 0.15-0.752 0.335v6.701c0 0.186 0.337 0.335 0.752 0.335s0.752-0.15 0.752-0.335v-6.701c0-0.185-0.337-0.335-0.752-0.335z"></path>
<path fill="#000" opacity="0.2" d="M151.592 11.486c-0.415 0-0.752 0.337-0.752 0.752v0 7.524c0 0.415 0.337 0.752 0.752 0.752s0.752-0.337 0.752-0.752v-7.524c0-0.415-0.337-0.752-0.752-0.752v0z"></path>
<path fill="#000" opacity="0.2" d="M166.565 11.486c-0.415 0-0.752 0.337-0.752 0.752v0 7.524c0 0.415 0.337 0.752 0.752 0.752s0.752-0.337 0.752-0.752v-7.524c0-0.415-0.337-0.752-0.752-0.752v0z"></path>
<path fill="#000" opacity="0.2" d="M181.757 11.486c-0.415 0-0.752 0.337-0.752 0.752v0 7.524c0 0.415 0.337 0.752 0.752 0.752s0.752-0.337 0.752-0.752v-7.524c0-0.415-0.337-0.752-0.752-0.752v0z"></path>
<path fill="#000" opacity="0.2" d="M196.95 11.486c-0.415 0-0.752 0.337-0.752 0.752v0 7.524c0 0.415 0.337 0.752 0.752 0.752s0.752-0.337 0.752-0.752v-7.524c0-0.415-0.337-0.752-0.752-0.752v0z"></path>
<path fill="#000" opacity="0.2" d="M144.068 6.433c-0.416 0-0.752 0.226-0.752 0.503v18.128c0 0.279 0.337 0.503 0.752 0.503s0.752-0.226 0.752-0.503v-18.127c0-0.277-0.337-0.503-0.752-0.503z"></path>
<path fill="#000" opacity="0.2" d="M159.043 6.433c-0.416 0-0.752 0.226-0.752 0.503v18.128c0 0.279 0.337 0.503 0.752 0.503s0.752-0.226 0.752-0.503v-18.127c0-0.277-0.337-0.503-0.752-0.503z"></path>
<path fill="#000" opacity="0.2" d="M174.234 6.433c-0.416 0-0.752 0.226-0.752 0.503v18.128c0 0.279 0.337 0.503 0.752 0.503s0.752-0.226 0.752-0.503v-18.127c0-0.277-0.337-0.503-0.752-0.503z"></path>
<path fill="#000" opacity="0.2" d="M189.426 6.433c-0.416 0-0.752 0.226-0.752 0.503v18.128c0 0.279 0.337 0.503 0.752 0.503s0.752-0.226 0.752-0.503v-18.127c0-0.277-0.337-0.503-0.752-0.503z"></path>
<path fill="#000" opacity="0.2" d="M132.783 13.744c-0.415 0-0.752 0.337-0.752 0.752v0 3.009c0 0.415 0.337 0.752 0.752 0.752s0.752-0.337 0.752-0.752v-3.012c-0.001-0.414-0.338-0.75-0.752-0.75 0 0 0 0 0 0v0z"></path>
<path fill="#000" opacity="0.2" d="M155.353 13.473c-0.415 0-0.752 0.337-0.752 0.752v0 3.256c0 0.415 0.337 0.752 0.752 0.752s0.752-0.337 0.752-0.752v0-3.256c0-0.415-0.337-0.752-0.752-0.752v0z"></path>
<path fill="#000" opacity="0.2" d="M170.327 13.473c-0.415 0-0.752 0.337-0.752 0.752v0 3.256c0 0.415 0.337 0.752 0.752 0.752s0.752-0.337 0.752-0.752v0-3.256c0-0.415-0.337-0.752-0.752-0.752v0z"></path>
<path fill="#000" opacity="0.2" d="M185.52 13.473c-0.415 0-0.752 0.337-0.752 0.752v0 3.256c0 0.415 0.337 0.752 0.752 0.752s0.752-0.337 0.752-0.752v0-3.256c0-0.415-0.337-0.752-0.752-0.752v0z"></path>
<path fill="#000" opacity="0.2" d="M200.711 13.473c-0.415 0-0.752 0.337-0.752 0.752v0 3.256c0 0.415 0.337 0.752 0.752 0.752s0.752-0.337 0.752-0.752v0-3.256c0-0.415-0.337-0.752-0.752-0.752v0z"></path>
<path fill="#000" opacity="0.2" d="M136.474 12.034c-0.415 0-0.752 0.337-0.752 0.752v0 6.124c0 0.415 0.337 0.752 0.752 0.752s0.752-0.337 0.752-0.752v-6.125c-0.001-0.415-0.337-0.751-0.752-0.751 0 0 0 0 0 0v0z"></path>
<path fill="#000" opacity="0.2" d="M234.664 9.891c0.415 0 0.752 0.337 0.752 0.752v0 10.421c0 0.415-0.337 0.752-0.752 0.752s-0.752-0.337-0.752-0.752v-10.42c0-0 0-0.001 0-0.001 0-0.415 0.337-0.752 0.752-0.752 0 0 0 0 0 0v0z"></path>
<path fill="#000" opacity="0.2" d="M230.906 3.422c0.421 0.025 0.753 0.372 0.753 0.797 0 0.015-0 0.029-0.001 0.043l0-0.002v23.478c0.003 0.026 0.005 0.057 0.005 0.088 0 0.418-0.339 0.757-0.757 0.757s-0.757-0.339-0.757-0.757c0-0.031 0.002-0.062 0.006-0.092l-0 0.004v-23.478c-0.001-0.012-0.001-0.027-0.001-0.041 0-0.425 0.332-0.773 0.751-0.797l0.002-0z"></path>
<path fill="#000" opacity="0.2" d="M227.143 7.185c0.425 0.039 0.755 0.394 0.755 0.825 0 0.023-0.001 0.045-0.003 0.067l0-0.003v15.097c0.007 0.038 0.010 0.081 0.010 0.125 0 0.421-0.341 0.763-0.763 0.763s-0.763-0.341-0.763-0.763c0-0.044 0.004-0.087 0.011-0.13l-0.001 0.005v-15.097c-0.002-0.019-0.002-0.041-0.002-0.064 0-0.432 0.33-0.786 0.751-0.825l0.003-0z"></path>
<path fill="#000" opacity="0.2" d="M215.785 5.363c0.423 0.030 0.754 0.381 0.754 0.808 0 0.018-0.001 0.035-0.002 0.052l0-0.002v19.3c0.004 0.030 0.006 0.064 0.006 0.099 0 0.419-0.34 0.759-0.759 0.759s-0.759-0.34-0.759-0.759c0-0.035 0.002-0.069 0.007-0.103l-0 0.004v-19.3c-0.001-0.015-0.002-0.032-0.002-0.050 0-0.428 0.331-0.778 0.751-0.808l0.003-0z"></path>
<path fill="#000" opacity="0.2" d="M208.335 6.431c0.423 0.034 0.754 0.386 0.754 0.816 0 0.019-0.001 0.038-0.002 0.057l0-0.003v17.397c0.005 0.032 0.008 0.070 0.008 0.108 0 0.42-0.34 0.76-0.76 0.76s-0.76-0.34-0.76-0.76c0-0.038 0.003-0.076 0.008-0.112l-0 0.004v-17.396c-0.001-0.017-0.002-0.036-0.002-0.055 0-0.429 0.331-0.781 0.751-0.815l0.003-0z"></path>
<path fill="#000" opacity="0.2" d="M204.573 11.486c0.415 0 0.752 0.337 0.752 0.752v0 7.524c0 0.415-0.337 0.752-0.752 0.752s-0.752-0.337-0.752-0.752v-7.524c0-0.415 0.337-0.752 0.752-0.752v0z"></path>
<path fill="#000" opacity="0.2" d="M212.096 0c0.421 0.026 0.753 0.374 0.753 0.8 0 0.015-0 0.030-0.001 0.045l0-0.002v30.315c0.003 0.026 0.005 0.057 0.005 0.088 0 0.418-0.339 0.757-0.757 0.757s-0.757-0.339-0.757-0.757c0-0.031 0.002-0.062 0.006-0.092l-0 0.004v-30.315c-0.001-0.013-0.001-0.028-0.001-0.043 0-0.426 0.332-0.774 0.751-0.8l0.002-0z"></path>
<path fill="#000" opacity="0.2" d="M223.382 13.742c0.415 0 0.752 0.337 0.752 0.752v0 3.009c0 0.415-0.337 0.752-0.752 0.752s-0.752-0.337-0.752-0.752v-3.012c0.001-0.414 0.338-0.75 0.752-0.75 0 0 0 0 0 0v0z"></path>
<path fill="#000" opacity="0.2" d="M219.691 12.040c0.415 0 0.752 0.337 0.752 0.752v0 6.124c0 0.415-0.337 0.752-0.752 0.752s-0.752-0.337-0.752-0.752v-6.125c0.001-0.415 0.337-0.751 0.752-0.751 0 0 0 0 0 0v0z"></path>
</svg>
