<!-- Generated by IcoMoon.io -->
<svg version="1.1" xmlns="http://www.w3.org/2000/svg" width="34" height="32" viewBox="0 0 34 32">
<title>shuffle</title>
<path d="M25.6 25.413v-3.013l8 4.8-8 4.8v-3.344c-5.060-0.742-9.211-4.026-11.164-8.491l-0.036-0.093v0.002c-2.26 5.175-7.333 8.726-13.235 8.726-0.002 0-0.003 0-0.005 0h-1.16v-3.2h1.16c4.591-0 8.537-2.763 10.266-6.717l0.028-0.072 1.205-2.811-1.205-2.811c-1.757-4.026-5.703-6.789-10.294-6.789h-1.16v-3.2h1.16c0.001 0 0.003 0 0.004 0 5.903 0 10.977 3.552 13.2 8.635l0.036 0.093v-0.002c1.989-4.557 6.141-7.84 11.122-8.573l0.078-0.009v-3.344l8 4.8-8 4.8v-3.013c-3.736 0.71-6.769 3.197-8.226 6.53l-0.028 0.072-1.205 2.811 1.205 2.811c1.485 3.405 4.518 5.891 8.184 6.59l0.070 0.011z"></path>
</svg>
