<!-- Generated by IcoMoon.io -->
<svg version="1.1" xmlns="http://www.w3.org/2000/svg" width="42" height="32" viewBox="0 0 42 32">
<title>sound</title>
<path d="M9.263 23.577h-7.367c0 0 0 0 0 0-1.047 0-1.895-0.849-1.895-1.895 0-0.002 0-0.004 0-0.006v0-11.359c0-1.047 0.849-1.895 1.895-1.895v0h7.367l10.031-8.207c0.162-0.134 0.372-0.216 0.602-0.216 0.523 0 0.947 0.424 0.947 0.947 0 0.003 0 0.005-0 0.008v-0 30.099c0 0.002 0 0.005 0 0.007 0 0.523-0.424 0.947-0.947 0.947-0.229 0-0.439-0.081-0.603-0.217l0.002 0.001-10.029-8.213zM34.872 31.409l-2.683-2.683c3.507-3.137 5.703-7.676 5.703-12.728 0-5.308-2.425-10.049-6.228-13.177l-0.030-0.024 2.693-2.689c4.516 3.847 7.361 9.538 7.361 15.895 0 6.097-2.618 11.582-6.792 15.393l-0.016 0.015zM28.159 24.697l-2.695-2.695c1.804-1.399 2.953-3.567 2.953-6.003 0-2.697-1.409-5.065-3.531-6.408l-0.031-0.018 2.726-2.726c2.818 2.093 4.624 5.412 4.624 9.152 0 3.482-1.566 6.599-4.032 8.684l-0.017 0.014z"></path>
</svg>
